HIERARCHY
ROOT hip
{
OFFSET -1.74 93.41 0.28
CHANNELS 6 Xposition Yposition Zposition Zrotation Xrotation Yrotation
JOINT abdomen
{
OFFSET 0 7.23 0
CHANNELS 6 Xposition Yposition Zposition Zrotation Xrotation Yrotation
JOINT chest
{
OFFSET 0 16.54 0
CHANNELS 6 Xposition Yposition Zposition Zrotation Xrotation Yrotation
JOINT neck
{
OFFSET 0 34.21 0
CHANNELS 6 Xposition Yposition Zposition Zrotation Xrotation Yrotation
JOINT head
{
OFFSET 0 6.29 0
CHANNELS 6 Xposition Yposition Zposition Zrotation Xrotation Yrotation
End Site
{
OFFSET 0 21.21 0
}
}
}
JOINT lCollar
{
OFFSET 4.06 26.61 -1.12
CHANNELS 6 Xposition Yposition Zposition Zrotation Xrotation Yrotation
JOINT lShldr
{
OFFSET 14.17 0 0
CHANNELS 6 Xposition Yposition Zposition Zrotation Xrotation Yrotation
JOINT lForeArm
{
OFFSET 26.12 0 0
CHANNELS 6 Xposition Yposition Zposition Zrotation Xrotation Yrotation
JOINT lHand
{
OFFSET 27.71 0 0
CHANNELS 6 Xposition Yposition Zposition Zrotation Xrotation Yrotation
JOINT lThumb1
{
OFFSET 2.29 -0.46 1.83
CHANNELS 6 Xposition Yposition Zposition Zrotation Xrotation Yrotation
JOINT lThumb2
{
OFFSET 5.29 0 0
CHANNELS 6 Xposition Yposition Zposition Zrotation Xrotation Yrotation
JOINT lThumb3
{
OFFSET 3.01 0 0
CHANNELS 6 Xposition Yposition Zposition Zrotation Xrotation Yrotation
End Site
{
OFFSET 2.62 0 0
}
}
}
}
JOINT lIndex1
{
OFFSET 9.37 0.29 2.59
CHANNELS 6 Xposition Yposition Zposition Zrotation Xrotation Yrotation
JOINT lIndex2
{
OFFSET 4.34 0 0
CHANNELS 6 Xposition Yposition Zposition Zrotation Xrotation Yrotation
JOINT lIndex3
{
OFFSET 2.16 0 0
CHANNELS 6 Xposition Yposition Zposition Zrotation Xrotation Yrotation
End Site
{
OFFSET 2.20 0 0
}
}
}
}
JOINT lMid1
{
OFFSET 9.47 0.83 0.29
CHANNELS 6 Xposition Yposition Zposition Zrotation Xrotation Yrotation
JOINT lMid2
{
OFFSET 4.77 0 0
CHANNELS 6 Xposition Yposition Zposition Zrotation Xrotation Yrotation
JOINT lMid3
{
OFFSET 2.87 0 0
CHANNELS 6 Xposition Yposition Zposition Zrotation Xrotation Yrotation
End Site
{
OFFSET 2.09 0 0
}
}
}
}
JOINT lRing1
{
OFFSET 8.65 1.01 -1.70
CHANNELS 6 Xposition Yposition Zposition Zrotation Xrotation Yrotation
JOINT lRing2
{
OFFSET 4.54 0 0
CHANNELS 6 Xposition Yposition Zposition Zrotation Xrotation Yrotation
JOINT lRing3
{
OFFSET 2.50 0 0
CHANNELS 6 Xposition Yposition Zposition Zrotation Xrotation Yrotation
End Site
{
OFFSET 2.20 0 0
}
}
}
}
JOINT lPinky1
{
OFFSET 7.69 0.66 -3.90
CHANNELS 6 Xposition Yposition Zposition Zrotation Xrotation Yrotation
JOINT lPinky2
{
OFFSET 3.21 0 0
CHANNELS 6 Xposition Yposition Zposition Zrotation Xrotation Yrotation
JOINT lPinky3
{
OFFSET 1.92 0 0
CHANNELS 6 Xposition Yposition Zposition Zrotation Xrotation Yrotation
End Site
{
OFFSET 1.78 0 0
}
}
}
}
}
}
}
}
JOINT rCollar
{
OFFSET -4.06 26.61 -1.12
CHANNELS 6 Xposition Yposition Zposition Zrotation Xrotation Yrotation
JOINT rShldr
{
OFFSET -14.17 0 0
CHANNELS 6 Xposition Yposition Zposition Zrotation Xrotation Yrotation
JOINT rForeArm
{
OFFSET -26.12 0 0
CHANNELS 6 Xposition Yposition Zposition Zrotation Xrotation Yrotation
JOINT rHand
{
OFFSET -27.71 0 0
CHANNELS 6 Xposition Yposition Zposition Zrotation Xrotation Yrotation
JOINT rThumb1
{
OFFSET -2.29 -0.46 1.83
CHANNELS 6 Xposition Yposition Zposition Zrotation Xrotation Yrotation
JOINT rThumb2
{
OFFSET -5.29 0 0
CHANNELS 6 Xposition Yposition Zposition Zrotation Xrotation Yrotation
JOINT rThumb3
{
OFFSET -3.01 0 0
CHANNELS 6 Xposition Yposition Zposition Zrotation Xrotation Yrotation
End Site
{
OFFSET -2.62 0 0
}
}
}
}
JOINT rIndex1
{
OFFSET -9.37 0.29 2.59
CHANNELS 6 Xposition Yposition Zposition Zrotation Xrotation Yrotation
JOINT rIndex2
{
OFFSET -4.34 0 0
CHANNELS 6 Xposition Yposition Zposition Zrotation Xrotation Yrotation
JOINT rIndex3
{
OFFSET -2.16 0 0
CHANNELS 6 Xposition Yposition Zposition Zrotation Xrotation Yrotation
End Site
{
OFFSET -2.20 0 0
}
}
}
}
JOINT rMid1
{
OFFSET -9.47 0.83 0.29
CHANNELS 6 Xposition Yposition Zposition Zrotation Xrotation Yrotation
JOINT rMid2
{
OFFSET -4.77 0 0
CHANNELS 6 Xposition Yposition Zposition Zrotation Xrotation Yrotation
JOINT rMid3
{
OFFSET -2.87 0 0
CHANNELS 6 Xposition Yposition Zposition Zrotation Xrotation Yrotation
End Site
{
OFFSET -2.09 0 0
}
}
}
}
JOINT rRing1
{
OFFSET -8.65 1.01 -1.70
CHANNELS 6 Xposition Yposition Zposition Zrotation Xrotation Yrotation
JOINT rRing2
{
OFFSET -4.54 0 0
CHANNELS 6 Xposition Yposition Zposition Zrotation Xrotation Yrotation
JOINT rRing3
{
OFFSET -2.50 0 0
CHANNELS 6 Xposition Yposition Zposition Zrotation Xrotation Yrotation
End Site
{
OFFSET -2.20 0 0
}
}
}
}
JOINT rPinky1
{
OFFSET -7.69 0.66 -3.90
CHANNELS 6 Xposition Yposition Zposition Zrotation Xrotation Yrotation
JOINT rPinky2
{
OFFSET -3.21 0 0
CHANNELS 6 Xposition Yposition Zposition Zrotation Xrotation Yrotation
JOINT rPinky3
{
OFFSET -1.92 0 0
CHANNELS 6 Xposition Yposition Zposition Zrotation Xrotation Yrotation
End Site
{
OFFSET -1.78 0 0
}
}
}
}
}
}
}
}
}
}
JOINT lThigh
{
OFFSET 8.73 -0 0
CHANNELS 6 Xposition Yposition Zposition Zrotation Xrotation Yrotation
JOINT lShin
{
OFFSET 0 -46.66 0
CHANNELS 6 Xposition Yposition Zposition Zrotation Xrotation Yrotation
JOINT lFoot
{
OFFSET 0 -40.14 0
CHANNELS 6 Xposition Yposition Zposition Zrotation Xrotation Yrotation
JOINT lToes
{
OFFSET 0 -8.88 14.22
CHANNELS 6 Xposition Yposition Zposition Zrotation Xrotation Yrotation
End Site
{
OFFSET 0 0 6.29
}
}
}
}
}
JOINT rThigh
{
OFFSET -8.73 0 -0
CHANNELS 6 Xposition Yposition Zposition Zrotation Xrotation Yrotation
JOINT rShin
{
OFFSET 0 -46.66 0
CHANNELS 6 Xposition Yposition Zposition Zrotation Xrotation Yrotation
JOINT rFoot
{
OFFSET 0 -40.14 0
CHANNELS 6 Xposition Yposition Zposition Zrotation Xrotation Yrotation
JOINT rToes
{
OFFSET 0 -8.88 14.22
CHANNELS 6 Xposition Yposition Zposition Zrotation Xrotation Yrotation
End Site
{
OFFSET 0 0 6.29
}
}
}
}
}
}
MOTION
Frames: 7
Frame Time: 0.03
-1.43 93.75 1.13 -2.89 -3.62 -8.79 0 7.23 0 3.76 -3.68 -0.65 0 16.54 0 7.70 -5.57 -1.64 0 34.21 0 -2.71 34.24 0.17 0 6.29 0 -9.18 -7.17 -2.12 4.06 26.61 -1.12 1.25 -4.46 12.05 14.17 0 0 -86.14 16.72 21.21 26.12 0 0 -0.36 0.07 -24.83 27.71 0 0 -12.52 -7.02 1.16 2.29 -0.46 1.83 48.25 74.53 -64.68 5.29 0 0 -16.00 -2.99 14.40 3.01 0 0 -4.86 -4.26 8.02 9.37 0.29 2.59 -2.33 -1.25 -1.05 4.34 0 0 -25.31 -0.97 5.56 2.16 0 0 -18.12 -0.62 3.47 9.47 0.83 0.29 -6.26 -4.06 0.52 4.77 0 0 -27.70 -1.74 7.44 2.87 0 0 -17.72 -0.64 6.33 8.65 1.01 -1.70 -8.69 2.60 0.53 4.54 0 0 -31.64 -1.33 4.70 2.50 0 0 -16.95 -0.32 3.66 7.69 0.66 -3.90 -9.02 -8.71 3.13 3.21 0 0 -19.79 0.17 3.02 1.92 0 0 -35.45 -3.88 13.94 -4.06 26.61 -1.12 3.52 -4.39 -7.13 -14.17 0 0 68.77 15.40 -19.89 -26.12 0 0 0.25 0.03 16.98 -27.71 0 0 6.70 -16.39 -5.18 -2.29 -0.46 1.83 -36.14 67.82 56.15 -5.29 0 0 16.96 10.12 -17.59 -3.01 0 0 -3.78 -8.19 -11.17 -9.37 0.29 2.59 4.29 -1.25 -0.18 -4.34 0 0 12.83 -0.05 -2.90 -2.16 0 0 12.71 -0.30 -2.33 -9.47 0.83 0.29 6.04 -4.06 -0.49 -4.77 0 0 23.11 -1.20 -6.31 -2.87 0 0 -10.93 -0.17 1.52 -8.65 1.01 -1.70 7.14 2.62 -0.60 -4.54 0 0 24.39 -0.80 -3.72 -2.50 0 0 -7.63 -0.01 0.13 -7.69 0.66 -3.90 4.90 -8.67 0.15 -3.21 0 0 22.59 -1.63 -8.15 -1.92 0 0 -7.39 -0.11 1.09 8.73 -0 0 15.70 -14.62 26.55 0 -46.66 0 5.74 19.71 -2.33 0 -40.14 0 -8.84 1.05 8.15 0 -8.88 14.22 0 0 0 -8.73 0 -0 3.84 -2.41 -18.20 0 -46.66 0 -1.36 28.14 -3.13 0 -40.14 0 -1.68 -22.49 -8.60 0 -8.88 14.22 0 0 0 
-1.46 93.75 1.13 -2.99 -3.63 -8.75 0 7.23 0 3.85 -3.66 -0.68 0 16.54 0 7.86 -5.53 -1.70 0 34.21 0 -2.80 34.31 0.16 0 6.29 0 -9.14 -7.88 -2.43 4.06 26.61 -1.12 0.99 -4.47 12.02 14.17 0 0 -85.97 16.56 20.94 26.12 0 0 -0.35 0.07 -24.23 27.71 0 0 -12.53 -6.62 0.87 2.29 -0.46 1.83 48.25 74.53 -64.68 5.29 0 0 -16.00 -2.99 14.40 3.01 0 0 -4.86 -4.26 8.02 9.37 0.29 2.59 -2.33 -1.25 -1.05 4.34 0 0 -25.31 -0.97 5.56 2.16 0 0 -18.12 -0.62 3.47 9.47 0.83 0.29 -6.26 -4.06 0.52 4.77 0 0 -27.70 -1.74 7.44 2.87 0 0 -17.72 -0.64 6.33 8.65 1.01 -1.70 -8.74 2.60 0.54 4.54 0 0 -31.85 -1.34 4.72 2.50 0 0 -17.16 -0.33 3.69 7.69 0.66 -3.90 -9.14 -8.71 3.16 3.21 0 0 -20.02 0.16 3.11 1.92 0 0 -35.67 -3.93 14.00 -4.06 26.61 -1.12 3.69 -4.38 -6.95 -14.17 0 0 68.37 15.18 -19.65 -26.12 0 0 0.24 0.03 16.51 -27.71 0 0 6.64 -16.44 -4.89 -2.29 -0.46 1.83 -36.38 67.80 56.38 -5.29 0 0 17.12 9.88 -17.50 -3.01 0 0 -3.63 -7.97 -11.01 -9.37 0.29 2.59 4.26 -1.25 -0.15 -4.34 0 0 13.03 -0.06 -2.94 -2.16 0 0 12.71 -0.30 -2.32 -9.47 0.83 0.29 5.99 -4.06 -0.48 -4.77 0 0 23.33 -1.22 -6.36 -2.87 0 0 -10.24 -0.14 1.33 -8.65 1.01 -1.70 7.32 2.62 -0.65 -4.54 0 0 24.81 -0.83 -3.78 -2.50 0 0 -6.53 0 -0.03 -7.69 0.66 -3.90 5.28 -8.67 0.05 -3.21 0 0 22.85 -1.67 -8.24 -1.92 0 0 -5.80 -0.04 0.51 8.73 -0 0 15.83 -14.67 26.62 0 -46.66 0 5.79 19.83 -2.46 0 -40.14 0 -8.86 0.99 8.15 0 -8.88 14.22 0 0 -0 -8.73 0 -0 3.98 -2.37 -18.13 0 -46.66 0 -1.36 28.09 -3.25 0 -40.14 0 -1.66 -22.47 -8.59 0 -8.88 14.22 0 0 0 
-1.48 93.73 1.11 -3.11 -3.64 -8.70 0 7.23 0 3.95 -3.63 -0.71 0 16.54 0 8.03 -5.48 -1.77 0 34.21 0 -2.94 34.43 0.20 0 6.29 0 -9.12 -8.64 -2.68 4.06 26.61 -1.12 0.72 -4.47 11.93 14.17 0 0 -85.84 16.36 20.63 26.12 0 0 -0.34 0.07 -23.47 27.71 0 0 -12.51 -6.27 0.41 2.29 -0.46 1.83 48.25 74.53 -64.68 5.29 0 0 -16.00 -2.99 14.40 3.01 0 0 -4.86 -4.26 8.02 9.37 0.29 2.59 -2.33 -1.25 -1.05 4.34 0 0 -25.31 -0.97 5.56 2.16 0 0 -18.12 -0.62 3.47 9.47 0.83 0.29 -6.26 -4.06 0.52 4.77 0 0 -27.70 -1.74 7.44 2.87 0 0 -17.72 -0.64 6.33 8.65 1.01 -1.70 -8.79 2.60 0.55 4.54 0 0 -32.07 -1.36 4.75 2.50 0 0 -17.39 -0.34 3.72 7.69 0.66 -3.90 -9.28 -8.71 3.19 3.21 0 0 -20.27 0.15 3.20 1.92 0 0 -35.92 -3.99 14.08 -4.06 26.61 -1.12 3.99 -4.36 -6.70 -14.17 0 0 67.86 14.95 -19.34 -26.12 0 0 0.23 0.03 15.91 -27.71 0 0 6.60 -16.45 -4.54 -2.29 -0.46 1.83 -36.64 67.77 56.61 -5.29 0 0 17.29 9.62 -17.40 -3.01 0 0 -3.47 -7.74 -10.83 -9.37 0.29 2.59 4.23 -1.25 -0.12 -4.34 0 0 13.24 -0.07 -2.99 -2.16 0 0 12.70 -0.30 -2.32 -9.47 0.83 0.29 5.94 -4.06 -0.47 -4.77 0 0 23.56 -1.25 -6.42 -2.87 0 0 -9.49 -0.10 1.13 -8.65 1.01 -1.70 7.52 2.62 -0.71 -4.54 0 0 25.26 -0.86 -3.85 -2.50 0 0 -5.34 0.02 -0.22 -7.69 0.66 -3.90 5.69 -8.68 -0.04 -3.21 0 0 23.14 -1.71 -8.34 -1.92 0 0 -4.07 0 -0.12 8.73 -0 0 15.99 -14.75 26.69 0 -46.66 0 5.84 19.99 -2.63 0 -40.14 0 -8.87 0.93 8.15 0 -8.88 14.22 0 0 0 -8.73 0 -0 4.15 -2.34 -18.05 0 -46.66 0 -1.36 28.05 -3.41 0 -40.14 0 -1.64 -22.45 -8.59 0 -8.88 14.22 0 0 0 
-1.51 93.71 1.09 -3.23 -3.62 -8.63 0 7.23 0 4.04 -3.62 -0.76 0 16.54 0 8.17 -5.47 -1.88 0 34.21 0 -3.11 34.57 0.26 0 6.29 0 -9.11 -9.40 -2.82 4.06 26.61 -1.12 0.44 -4.48 11.74 14.17 0 0 -85.75 16.15 20.30 26.12 0 0 -0.33 0.06 -22.60 27.71 0 0 -12.47 -6.04 -0.19 2.29 -0.46 1.83 48.25 74.53 -64.68 5.29 0 0 -16.00 -2.99 14.40 3.01 0 0 -4.86 -4.26 8.02 9.37 0.29 2.59 -2.33 -1.25 -1.05 4.34 0 0 -25.31 -0.97 5.56 2.16 0 0 -18.12 -0.62 3.47 9.47 0.83 0.29 -6.26 -4.06 0.52 4.77 0 0 -27.70 -1.74 7.44 2.87 0 0 -17.72 -0.64 6.33 8.65 1.01 -1.70 -8.84 2.60 0.56 4.54 0 0 -32.32 -1.38 4.79 2.50 0 0 -17.64 -0.35 3.76 7.69 0.66 -3.90 -9.43 -8.72 3.22 3.21 0 0 -20.54 0.13 3.30 1.92 0 0 -36.19 -4.05 14.16 -4.06 26.61 -1.12 4.40 -4.33 -6.41 -14.17 0 0 67.29 14.80 -18.98 -26.12 0 0 0.22 0.03 15.18 -27.71 0 0 6.60 -16.35 -4.20 -2.29 -0.46 1.83 -36.92 67.74 56.87 -5.29 0 0 17.48 9.34 -17.29 -3.01 0 0 -3.30 -7.48 -10.64 -9.37 0.29 2.59 4.20 -1.25 -0.09 -4.34 0 0 13.47 -0.08 -3.04 -2.16 0 0 12.69 -0.30 -2.32 -9.47 0.83 0.29 5.89 -4.06 -0.46 -4.77 0 0 23.81 -1.28 -6.49 -2.87 0 0 -8.69 -0.06 0.91 -8.65 1.01 -1.70 7.73 2.62 -0.78 -4.54 0 0 25.75 -0.89 -3.92 -2.50 0 0 -4.06 0.04 -0.42 -7.69 0.66 -3.90 6.13 -8.68 -0.14 -3.21 0 0 23.45 -1.75 -8.45 -1.92 0 0 -2.21 0.04 -0.80 8.73 -0 0 16.16 -14.86 26.78 0 -46.66 0 5.90 20.13 -2.83 0 -40.14 0 -8.88 0.90 8.14 0 -8.88 14.22 0 0 0 -8.73 0 -0 4.33 -2.35 -17.96 0 -46.66 0 -1.35 28.02 -3.60 0 -40.14 0 -1.62 -22.43 -8.58 0 -8.88 14.22 0 0 0 
-1.55 93.70 1.06 -3.35 -3.57 -8.53 0 7.23 0 4.11 -3.64 -0.82 0 16.54 0 8.29 -5.51 -2.00 0 34.21 0 -3.26 34.70 0.34 0 6.29 0 -9.11 -10.21 -2.87 4.06 26.61 -1.12 0.15 -4.48 11.48 14.17 0 0 -85.70 15.98 19.97 26.12 0 0 -0.31 0.06 -21.68 27.71 0 0 -12.40 -5.93 -0.89 2.29 -0.46 1.83 48.25 74.53 -64.68 5.29 0 0 -16.00 -2.99 14.40 3.01 0 0 -4.86 -4.26 8.02 9.37 0.29 2.59 -2.33 -1.25 -1.05 4.34 0 0 -25.31 -0.97 5.56 2.16 0 0 -18.12 -0.62 3.47 9.47 0.83 0.29 -6.26 -4.06 0.52 4.77 0 0 -27.70 -1.74 7.44 2.87 0 0 -17.72 -0.64 6.33 8.65 1.01 -1.70 -8.90 2.60 0.57 4.54 0 0 -32.59 -1.41 4.82 2.50 0 0 -17.91 -0.37 3.80 7.69 0.66 -3.90 -9.59 -8.72 3.25 3.21 0 0 -20.84 0.11 3.41 1.92 0 0 -36.48 -4.11 14.25 -4.06 26.61 -1.12 4.85 -4.30 -6.07 -14.17 0 0 66.75 14.80 -18.62 -26.12 0 0 0.21 0.02 14.34 -27.71 0 0 6.63 -16.10 -3.81 -2.29 -0.46 1.83 -37.21 67.71 57.13 -5.29 0 0 17.67 9.05 -17.18 -3.01 0 0 -3.12 -7.21 -10.44 -9.37 0.29 2.59 4.16 -1.25 -0.05 -4.34 0 0 13.71 -0.09 -3.09 -2.16 0 0 12.68 -0.30 -2.32 -9.47 0.83 0.29 5.84 -4.06 -0.45 -4.77 0 0 24.08 -1.31 -6.56 -2.87 0 0 -7.84 -0.03 0.67 -8.65 1.01 -1.70 7.94 2.61 -0.84 -4.54 0 0 26.27 -0.93 -3.99 -2.50 0 0 -2.70 0.05 -0.63 -7.69 0.66 -3.90 6.59 -8.68 -0.26 -3.21 0 0 23.77 -1.80 -8.56 -1.92 0 0 -0.24 0.06 -1.53 8.73 -0 0 16.34 -15.02 26.86 0 -46.66 0 5.96 20.27 -3.03 0 -40.14 0 -8.89 0.89 8.14 0 -8.88 14.22 0 0 0 -8.73 0 -0 4.52 -2.40 -17.85 0 -46.66 0 -1.34 28.00 -3.82 0 -40.14 0 -1.59 -22.42 -8.57 0 -8.88 14.22 0 0 0 
-1.59 93.67 1.05 -3.48 -3.47 -8.44 0 7.23 0 4.19 -3.67 -0.88 0 16.54 0 8.41 -5.58 -2.13 0 34.21 0 -3.37 34.76 0.41 0 6.29 0 -9.10 -11.13 -2.86 4.06 26.61 -1.12 -0.14 -4.48 11.22 14.17 0 0 -85.69 15.90 19.62 26.12 0 0 -0.30 0.05 -20.77 27.71 0 0 -12.30 -5.84 -1.60 2.29 -0.46 1.83 48.25 74.53 -64.68 5.29 0 0 -16.00 -2.99 14.40 3.01 0 0 -4.86 -4.26 8.02 9.37 0.29 2.59 -2.33 -1.25 -1.05 4.34 0 0 -25.31 -0.97 5.56 2.16 0 0 -18.12 -0.62 3.47 9.47 0.83 0.29 -6.26 -4.06 0.52 4.77 0 0 -27.70 -1.74 7.44 2.87 0 0 -17.72 -0.64 6.33 8.65 1.01 -1.70 -8.96 2.60 0.58 4.54 0 0 -32.88 -1.43 4.86 2.50 0 0 -18.20 -0.38 3.84 7.69 0.66 -3.90 -9.76 -8.72 3.29 3.21 0 0 -21.15 0.09 3.53 1.92 0 0 -36.78 -4.18 14.34 -4.06 26.61 -1.12 5.26 -4.26 -5.68 -14.17 0 0 66.31 14.93 -18.29 -26.12 0 0 0.20 0.02 13.45 -27.71 0 0 6.68 -15.76 -3.39 -2.29 -0.46 1.83 -37.52 67.68 57.41 -5.29 0 0 17.88 8.75 -17.06 -3.01 0 0 -2.93 -6.93 -10.23 -9.37 0.29 2.59 4.13 -1.25 -0.02 -4.34 0 0 13.96 -0.10 -3.15 -2.16 0 0 12.66 -0.30 -2.32 -9.47 0.83 0.29 5.78 -4.06 -0.44 -4.77 0 0 24.35 -1.34 -6.63 -2.87 0 0 -6.94 -0 0.42 -8.65 1.01 -1.70 8.17 2.61 -0.91 -4.54 0 0 26.82 -0.97 -4.07 -2.50 0 0 -1.28 0.06 -0.85 -7.69 0.66 -3.90 7.08 -8.69 -0.37 -3.21 0 0 24.11 -1.85 -8.67 -1.92 0 0 1.82 0.05 -2.29 8.73 -0 0 16.54 -15.23 26.96 0 -46.66 0 6.01 20.46 -3.22 0 -40.14 0 -8.89 0.85 8.14 0 -8.88 14.22 0 0 0 -8.73 0 -0 4.72 -2.49 -17.73 0 -46.66 0 -1.32 27.99 -4.05 0 -40.14 0 -1.56 -22.42 -8.56 0 -8.88 14.22 0 0 -0 
-1.63 93.65 1.03 -3.62 -3.37 -8.35 0 7.23 0 4.27 -3.67 -0.93 0 16.54 0 8.56 -5.59 -2.22 0 34.21 0 -3.42 34.72 0.45 0 6.29 0 -9.09 -12.18 -2.84 4.06 26.61 -1.12 -0.41 -4.48 11.01 14.17 0 0 -85.72 15.93 19.26 26.12 0 0 -0.29 0.05 -19.88 27.71 0 0 -12.19 -5.64 -2.26 2.29 -0.46 1.83 48.25 74.53 -64.68 5.29 0 0 -16.00 -2.99 14.40 3.01 0 0 -4.86 -4.26 8.02 9.37 0.29 2.59 -2.33 -1.25 -1.05 4.34 0 0 -25.31 -0.97 5.56 2.16 0 0 -18.12 -0.62 3.47 9.47 0.83 0.29 -6.26 -4.06 0.52 4.77 0 0 -27.70 -1.74 7.44 2.87 0 0 -17.72 -0.64 6.33 8.65 1.01 -1.70 -9.03 2.60 0.60 4.54 0 0 -33.18 -1.46 4.90 2.50 0 0 -18.50 -0.40 3.89 7.69 0.66 -3.90 -9.94 -8.73 3.33 3.21 0 0 -21.48 0.07 3.65 1.92 0 0 -37.10 -4.25 14.44 -4.06 26.61 -1.12 5.58 -4.22 -5.28 -14.17 0 0 66.00 15.07 -18.00 -26.12 0 0 0.18 0.02 12.68 -27.71 0 0 6.75 -15.46 -2.98 -2.29 -0.46 1.83 -37.83 67.65 57.69 -5.29 0 0 18.09 8.44 -16.94 -3.01 0 0 -2.74 -6.63 -10.01 -9.37 0.29 2.59 4.09 -1.25 0.01 -4.34 0 0 14.22 -0.12 -3.21 -2.16 0 0 12.65 -0.30 -2.31 -9.47 0.83 0.29 5.72 -4.06 -0.43 -4.77 0 0 24.64 -1.37 -6.70 -2.87 0 0 -6.00 0.02 0.16 -8.65 1.01 -1.70 8.41 2.60 -0.98 -4.54 0 0 27.39 -1.01 -4.15 -2.50 0 0 0.20 0.06 -1.09 -7.69 0.66 -3.90 7.59 -8.70 -0.50 -3.21 0 0 24.47 -1.91 -8.80 -1.92 0 0 3.97 0.01 -3.09 8.73 -0 0 16.77 -15.45 27.08 0 -46.66 0 6.06 20.69 -3.40 0 -40.14 0 -8.89 0.81 8.13 0 -8.88 14.22 0 0 -0 -8.73 0 -0 4.94 -2.58 -17.62 0 -46.66 0 -1.30 27.98 -4.27 0 -40.14 0 -1.54 -22.42 -8.56 0 -8.88 14.22 0 0 -0 
